# xmcd CD database file generated by Grip 2.96
# 
# Track frame offsets:
#       150
#       25722
#       41202
#       59552
#       83922
#       104205
#       124772
#       146207
#       164215
#       181384
#       211625
#       253195
#       285110
# 
# Disc length: 4070 seconds
# 
# Revision: 0
# Processed by: cddbd v1.4PL0 Copyright (c) Steve Scherf et al.
# Submitted via: Grip 2.96
# 
DISCID=c60fe40d
DTITLE=John Lee Hooker - Live at the Cafe au Go-Go (and Soledad Prison)
DYEAR=1900
DGENRE=
TTITLE0=I'm Bad Like Jesse James
TTITLE1=She's Long, She's tall (She Weeps Like A Willow Tree)
TTITLE2=When My First Wife Left Me
TTITLE3=Heartaches And Misery
TTITLE4=One Bourbon, One Scotch And One Berr
TTITLE5=I Don't Want No Trouble
TTITLE6=I'll Never Get Out Of These Blues Alive
TTITLE7=Seven Days
TTITLE8=What's The Matter Baby
TTITLE9=Lucille
TTITLE10=Boogie Everywhere I Go
TTITLE11=Serve Me Right To Suffer
TTITLE12=Bang Bang Bang Bang
EXTD=
EXTT0=
EXTT1=
EXTT2=
EXTT3=
EXTT4=
EXTT5=
EXTT6=
EXTT7=
EXTT8=
EXTT9=
EXTT10=
EXTT11=
EXTT12=
PLAYORDER=
